<?xml version="1.0" encoding="UTF-8"?><svg xmlns="http://www.w3.org/2000/svg" viewBox="0 0 1634.46 265.94"><defs><style>.d{fill:#f03;}.d,.e,.f{stroke:#414042;stroke-miterlimit:10;stroke-width:30px;}.g{fill:#414042;font-family:Ubuntu-Bold, Ubuntu;font-size:150px;}.h{letter-spacing:-.08em;}.i{letter-spacing:-.04em;}.e{fill:lime;}.f{fill:#ff0;}</style></defs><g id="a"/><g id="b"><g id="c"><g><g><path class="d" d="M251.52,15c-1.2,0-2.41,0-3.61,.03-85.67,1.26-127.42,105.35-66.83,165.93l68.97,68.97h.03l69-69c60.83-60.83,18.48-165.89-67.55-165.93Z"/><path class="f" d="M250.05,249.93L84.33,84.21C38.78,129.76,15.7,189.29,15.14,248.98l234.91,.95Z"/><path class="e" d="M418.48,84.21c-.45-.45-.9-.9-1.36-1.34L250.07,249.93l237.6,.95c-.08-60.35-23.16-120.64-69.19-166.67Z"/></g><text class="g" transform="translate(537.67 189.85)"><tspan x="0" y="0">DE</tspan><tspan class="i" x="201.45" y="0">W</tspan><tspan x="337.65" y="0">A KRE</tspan><tspan class="h" x="775.34" y="0">A</tspan><tspan x="871.19" y="0">TIF</tspan></text></g></g></g></svg>