<svg width="16" height="16" viewBox="0 0 16 16" fill="none" xmlns="http://www.w3.org/2000/svg">
<g clip-path="url(#clip0_67_13)">
<path d="M12.8184 0H3.18161C2.33779 0 1.52854 0.335204 0.931872 0.931872C0.335204 1.52854 0 2.33779 0 3.18161L0 12.8184C0 13.6622 0.335204 14.4715 0.931872 15.0681C1.52854 15.6648 2.33779 16 3.18161 16H7.50345V9.94942H5.51724C5.51724 9.24138 5.51724 8.42299 5.51724 7.6046H7.50345V5.76552C7.49856 5.41992 7.56257 5.07681 7.69173 4.75622C7.8209 4.43563 8.01263 4.14399 8.25574 3.89831C8.49885 3.65263 8.78847 3.45784 9.10768 3.32532C9.4269 3.19279 9.76931 3.12518 10.1149 3.12644H12.5701C12.5701 3.65977 12.5701 4.46897 12.5701 5.37012H11.4391C11.1518 5.36987 10.8755 5.48076 10.6681 5.67958C10.4608 5.8784 10.3383 6.14973 10.3264 6.43678V7.6046H12.5609L12.3034 9.94942H10.3264V16H12.8184C13.6622 16 14.4715 15.6648 15.0681 15.0681C15.6648 14.4715 16 13.6622 16 12.8184V3.18161C16 2.33779 15.6648 1.52854 15.0681 0.931872C14.4715 0.335204 13.6622 0 12.8184 0Z" fill="#3B82F6"/>
</g>
<defs>
<clipPath id="clip0_67_13">
<rect width="16" height="16" fill="white"/>
</clipPath>
</defs>
</svg>
