<svg width="16" height="16" viewBox="0 0 16 16" fill="none" xmlns="http://www.w3.org/2000/svg">
<g clip-path="url(#clip0_67_7)">
<path d="M12.1422 16H3.89479C3.38508 16.0048 2.87946 15.9086 2.40715 15.7169C1.93485 15.5252 1.50521 15.2418 1.14307 14.8831C0.780937 14.5243 0.49348 14.0974 0.297311 13.6269C0.101142 13.1565 0.000151244 12.6518 0.000174252 12.142V3.89462C-0.00466289 3.38568 0.0912517 2.88081 0.282392 2.4091C0.473533 1.93739 0.756121 1.50816 1.11388 1.14615C1.47163 0.784135 1.89748 0.496487 2.3669 0.299778C2.83631 0.103068 3.34001 0.00118595 3.84897 0L12.1422 0C13.1622 0.00241999 14.1398 0.408694 14.8611 1.12996C15.5823 1.85123 15.9886 2.82878 15.991 3.8488V12.142C15.991 13.1636 15.5858 14.1435 14.8643 14.8668C14.1428 15.59 13.1638 15.9976 12.1422 16ZM3.84897 1.53952C3.23651 1.53952 2.64914 1.78282 2.21607 2.21589C1.78299 2.64896 1.53969 3.23634 1.53969 3.8488V12.142C1.53969 12.7545 1.78299 13.3419 2.21607 13.7749C2.64914 14.208 3.23651 14.4513 3.84897 14.4513H12.1422C12.7547 14.4513 13.342 14.208 13.7751 13.7749C14.2082 13.3419 14.4515 12.7545 14.4515 12.142V3.89462C14.4515 3.28216 14.2082 2.69478 13.7751 2.26171C13.342 1.82864 12.7547 1.58534 12.1422 1.58534L3.84897 1.53952Z" fill="#3B82F6"/>
<path d="M8.00003 11.9588C7.21447 11.9606 6.44605 11.7292 5.79213 11.2939C5.1382 10.8586 4.6282 10.239 4.32675 9.51356C4.02529 8.78815 3.94594 7.98957 4.09875 7.21902C4.25156 6.44846 4.62965 5.74061 5.18513 5.18513C5.74061 4.62965 6.44846 4.25156 7.21902 4.09875C7.98957 3.94594 8.78815 4.02529 9.51356 4.32675C10.239 4.6282 10.8586 5.1382 11.2939 5.79213C11.7292 6.44605 11.9606 7.21447 11.9588 8.00003C11.9564 9.04922 11.5385 10.0547 10.7966 10.7966C10.0547 11.5385 9.04922 11.9564 8.00003 11.9588ZM8.00003 5.54413C7.51935 5.54232 7.04895 5.6832 6.64839 5.94893C6.24784 6.21466 5.93516 6.59329 5.74995 7.03686C5.56475 7.48043 5.51535 7.96899 5.60801 8.44066C5.70067 8.91232 5.93123 9.34588 6.27048 9.68642C6.60973 10.027 7.04241 10.2591 7.51373 10.3536C7.98504 10.448 8.47378 10.4005 8.91805 10.217C9.36232 10.0334 9.74213 9.72218 10.0094 9.32264C10.2766 8.92309 10.4193 8.45322 10.4193 7.97254C10.4121 7.33485 10.1543 6.72558 9.70162 6.27635C9.24897 5.82713 8.63776 5.57399 8.00003 5.57162V5.54413Z" fill="#3B82F6"/>
<path d="M12.0138 4.62772C12.53 4.62772 12.9485 4.20923 12.9485 3.69301C12.9485 3.17678 12.53 2.7583 12.0138 2.7583C11.4976 2.7583 11.0791 3.17678 11.0791 3.69301C11.0791 4.20923 11.4976 4.62772 12.0138 4.62772Z" fill="#3B82F6"/>
</g>
<defs>
<clipPath id="clip0_67_7">
<rect width="15.9908" height="16" fill="white"/>
</clipPath>
</defs>
</svg>
