<?xml version="1.0" encoding="UTF-8"?><svg xmlns="http://www.w3.org/2000/svg" viewBox="0 0 278.34 44.01"><defs><style>.d{fill:lime;}.d,.e,.f{stroke:#414042;stroke-miterlimit:10;stroke-width:4px;}.e{fill:#f03;}.f{fill:#ff0;}.g{fill:#414042;}</style></defs><g id="a"/><g id="b"><g id="c"><g><g><path class="e" d="M42.1,2c-.2,0-.41,0-.61,0-14.53,.21-21.61,17.86-11.33,28.14l11.7,11.7h0l11.7-11.7c10.32-10.32,3.13-28.13-11.45-28.14Z"/><path class="f" d="M41.85,41.84L13.75,13.74C6.03,21.46,2.11,31.55,2.02,41.68l39.83,.16Z"/><path class="d" d="M70.42,13.74c-.08-.08-.15-.15-.23-.23l-28.33,28.33,40.29,.16c-.01-10.23-3.93-20.46-11.73-28.26Z"/></g><g><path class="g" d="M114.5,21.18c0,1.44-.22,2.7-.67,3.77-.45,1.07-1.08,1.96-1.91,2.66-.82,.71-1.83,1.23-3.01,1.58-1.18,.35-2.51,.53-3.98,.53-.67,0-1.46-.03-2.35-.08-.9-.06-1.78-.17-2.64-.35V13.09c.86-.16,1.76-.27,2.7-.32,.94-.06,1.74-.08,2.41-.08,1.42,0,2.72,.16,3.88,.48s2.16,.82,2.99,1.51c.83,.69,1.47,1.57,1.92,2.64,.45,1.07,.67,2.36,.67,3.86Zm-10.82,5.28c.18,.02,.38,.03,.61,.04,.23,0,.51,.01,.83,.01,1.87,0,3.26-.47,4.16-1.42,.9-.94,1.36-2.25,1.36-3.91s-.43-3.06-1.3-3.96c-.86-.9-2.23-1.34-4.1-1.34-.26,0-.52,0-.79,.01-.27,0-.53,.03-.77,.06v10.51Z"/><path class="g" d="M117.86,29.51V12.87h11.23v3.14h-7.49v3.26h6.65v3.07h-6.65v4.01h8.04v3.14h-11.78Z"/><path class="g" d="M143.82,14.65c.19,.66,.4,1.4,.63,2.22,.23,.82,.48,1.68,.74,2.56s.53,1.76,.8,2.64c.27,.88,.54,1.7,.79,2.45,.21-.82,.42-1.7,.64-2.66s.42-1.95,.61-2.98c.19-1.02,.38-2.04,.57-3.06,.18-1.02,.36-2,.52-2.94h3.89c-.56,2.78-1.21,5.61-1.94,8.47-.73,2.86-1.53,5.58-2.38,8.16h-3.42c-.56-1.54-1.1-3.15-1.63-4.84-.53-1.69-1.05-3.38-1.56-5.08-.51,1.7-1.03,3.39-1.54,5.08-.51,1.69-1.05,3.3-1.61,4.84h-3.42c-.85-2.58-1.64-5.3-2.37-8.16-.73-2.86-1.38-5.69-1.94-8.47h4.06c.16,.94,.34,1.92,.53,2.94,.19,1.02,.39,2.04,.6,3.06,.21,1.02,.42,2.02,.64,2.98s.44,1.85,.66,2.66c.29-.78,.57-1.62,.84-2.5,.27-.88,.54-1.76,.79-2.64,.26-.88,.49-1.73,.71-2.54,.22-.82,.41-1.54,.59-2.18h3.19Z"/><path class="g" d="M166.79,29.51c-.19-.58-.38-1.17-.6-1.78-.21-.61-.43-1.22-.64-1.82h-6.5c-.21,.61-.42,1.21-.63,1.82-.21,.61-.41,1.2-.59,1.78h-3.89c.63-1.79,1.22-3.45,1.78-4.97s1.11-2.95,1.65-4.3c.54-1.34,1.07-2.62,1.59-3.83s1.06-2.39,1.62-3.54h3.55c.55,1.15,1.08,2.33,1.62,3.54s1.06,2.48,1.6,3.83c.54,1.34,1.09,2.78,1.65,4.3s1.16,3.18,1.78,4.97h-4.01Zm-4.5-12.86c-.08,.24-.21,.57-.37,.99-.16,.42-.34,.9-.55,1.44-.21,.54-.44,1.14-.69,1.8s-.51,1.34-.77,2.06h4.76c-.25-.72-.5-1.41-.74-2.07-.24-.66-.46-1.26-.68-1.8s-.4-1.03-.56-1.44c-.16-.42-.29-.74-.39-.98Z"/><path class="g" d="M188.98,29.51c-.34-.54-.73-1.13-1.19-1.75-.46-.63-.95-1.26-1.48-1.9s-1.08-1.25-1.66-1.84c-.58-.58-1.15-1.1-1.73-1.55v7.04h-3.74V12.87h3.74v6.25c.96-1.01,1.94-2.07,2.93-3.17,.99-1.1,1.91-2.13,2.75-3.08h4.44c-1.13,1.35-2.27,2.64-3.42,3.89s-2.35,2.5-3.62,3.76c1.33,1.11,2.61,2.43,3.85,3.95,1.24,1.52,2.42,3.2,3.57,5.04h-4.45Z"/><path class="g" d="M200.7,12.68c2.5,0,4.41,.44,5.74,1.33,1.33,.89,1.99,2.27,1.99,4.14,0,1.17-.27,2.12-.8,2.84s-1.31,1.3-2.32,1.72c.34,.42,.69,.89,1.06,1.43,.37,.54,.73,1.1,1.09,1.68,.36,.58,.71,1.19,1.04,1.82,.34,.63,.65,1.25,.94,1.86h-4.19c-.31-.54-.62-1.1-.93-1.66-.31-.56-.63-1.1-.96-1.63s-.65-1.03-.98-1.5c-.32-.47-.64-.9-.96-1.28h-1.85v6.07h-3.74V13.11c.82-.16,1.66-.27,2.53-.34,.87-.06,1.65-.1,2.34-.1Zm.22,3.19c-.27,0-.52,0-.73,.02-.22,.02-.42,.03-.61,.05v4.51h1.06c1.41,0,2.42-.18,3.02-.53,.61-.35,.91-.95,.91-1.8s-.31-1.4-.92-1.74c-.62-.34-1.52-.52-2.72-.52Z"/><path class="g" d="M212.08,29.51V12.87h11.23v3.14h-7.49v3.26h6.65v3.07h-6.65v4.01h8.04v3.14h-11.78Z"/><path class="g" d="M238.02,29.51c-.19-.58-.38-1.17-.6-1.78-.21-.61-.43-1.22-.64-1.82h-6.5c-.21,.61-.42,1.21-.63,1.82-.21,.61-.41,1.2-.59,1.78h-3.89c.63-1.79,1.22-3.45,1.78-4.97s1.11-2.95,1.65-4.3c.54-1.34,1.07-2.62,1.59-3.83s1.06-2.39,1.62-3.54h3.55c.55,1.15,1.08,2.33,1.62,3.54s1.06,2.48,1.6,3.83c.54,1.34,1.09,2.78,1.65,4.3s1.16,3.18,1.78,4.97h-4.01Zm-4.5-12.86c-.08,.24-.21,.57-.37,.99-.16,.42-.34,.9-.55,1.44-.21,.54-.44,1.14-.69,1.8s-.51,1.34-.77,2.06h4.76c-.25-.72-.5-1.41-.74-2.07-.24-.66-.46-1.26-.68-1.8s-.4-1.03-.56-1.44c-.16-.42-.29-.74-.39-.98Z"/><path class="g" d="M256.74,12.87v3.19h-5.02v13.44h-3.74v-13.44h-5.02v-3.19h13.78Z"/><path class="g" d="M259.38,12.87h3.74V29.51h-3.74V12.87Z"/><path class="g" d="M267.21,29.51V12.87h11.14v3.14h-7.39v3.48h6.58v3.14h-6.58v6.86h-3.74Z"/></g></g></g></g></svg>