<svg width="15" height="16" viewBox="0 0 15 16" fill="none" xmlns="http://www.w3.org/2000/svg">
<g clip-path="url(#clip0_67_2)">
<path d="M8.80753 8.43276C8.74328 8.49769 8.66678 8.54925 8.58248 8.58443C8.49817 8.61961 8.40773 8.63773 8.31637 8.63773C8.22502 8.63773 8.13458 8.61961 8.05027 8.58443C7.96596 8.54925 7.88947 8.49769 7.82522 8.43276L6.28516 6.89269C6.22022 6.82844 6.16867 6.75195 6.13349 6.66764C6.0983 6.58334 6.08019 6.49289 6.08019 6.40154C6.08019 6.31019 6.0983 6.21974 6.13349 6.13544C6.16867 6.05113 6.22022 5.97464 6.28516 5.91038C6.39755 5.80425 6.46593 5.65973 6.47672 5.50552C6.48752 5.35131 6.43994 5.19868 6.34343 5.07792L5.61918 4.09561C5.57081 4.03408 5.51037 3.98308 5.44157 3.94575C5.37277 3.90842 5.29707 3.88555 5.21912 3.87853C5.14116 3.87152 5.06259 3.88051 4.98823 3.90495C4.91388 3.9294 4.8453 3.96878 4.78672 4.02069C3.81273 4.99467 3.52969 6.74285 4.46206 7.67521L7.0427 10.2559C7.97506 11.1799 9.76487 10.9052 10.6889 9.97282C10.7498 9.91418 10.7969 9.84282 10.8271 9.76385C10.8572 9.68488 10.8695 9.60023 10.8631 9.51595C10.8568 9.43167 10.8319 9.34983 10.7903 9.27627C10.7486 9.20271 10.6913 9.13925 10.6223 9.09041L9.61502 8.36616C9.4939 8.28103 9.34676 8.24107 9.19922 8.25324C9.05167 8.26541 8.91307 8.32893 8.80753 8.43276Z" fill="#3B82F6"/>
<path d="M7.40063 1.3985C8.94836 1.38896 10.4399 1.97768 11.5639 3.04173C12.6879 4.10578 13.3574 5.56291 13.4326 7.10884C13.5078 8.65478 12.9829 10.17 11.9675 11.3381C10.9521 12.5063 9.5247 13.237 7.98335 13.3777H7.44225C6.35056 13.3894 5.27657 13.1015 4.33715 12.5452L2.03954 13.5692C2.03954 13.5692 2.65557 11.0301 2.58897 10.9469C1.94959 10.0738 1.55816 9.04406 1.4561 7.9667C1.35405 6.88935 1.54518 5.80444 2.00925 4.82681C2.47332 3.84919 3.19308 3.01522 4.09233 2.41317C4.99159 1.81113 6.03689 1.46341 7.11759 1.40683H7.40063M7.40063 -4.26583e-05H7.05099C5.76754 0.0649943 4.52314 0.46312 3.44028 1.15515C2.35742 1.84717 1.47343 2.80925 0.875317 3.94668C0.277201 5.0841 -0.0144208 6.35768 0.029154 7.64204C0.0727288 8.9264 0.449999 10.1773 1.12383 11.2716C1.02393 11.7544 0.840791 12.5535 0.674298 13.2362L0 16L2.60562 14.8428L4.27055 14.1019C5.26074 14.5658 6.34047 14.8073 7.43392 14.8095C7.65036 14.8095 7.87513 14.8095 8.0999 14.8095C10.0638 14.7168 11.9104 13.8477 13.2335 12.3935C14.5566 10.9393 15.2478 9.01898 15.155 7.05511C15.0623 5.09124 14.1932 3.24464 12.739 1.92154C11.2848 0.598442 9.3645 -0.0927718 7.40063 -4.26583e-05Z" fill="#3B82F6"/>
</g>
<defs>
<clipPath id="clip0_67_2">
<rect width="14.8345" height="16" fill="white"/>
</clipPath>
</defs>
</svg>
